<?xml version="1.0" standalone="no"?>
<!DOCTYPE svg PUBLIC "-//W3C//DTD SVG 20010904//EN"
 "http://www.w3.org/TR/2001/REC-SVG-20010904/DTD/svg10.dtd">
<svg version="1.0" xmlns="http://www.w3.org/2000/svg"
 width="1280.000000pt" height="664.000000pt" viewBox="0 0 1280.000000 664.000000"
 preserveAspectRatio="xMidYMid meet">
<g transform="translate(0.000000,664.000000) scale(0.100000,-0.100000)"
fill="#000000" stroke="none">
<path d="M6240 6630 c-8 -5 -467 -109 -1020 -231 -553 -121 -1309 -287 -1680
-369 -371 -82 -1300 -287 -2065 -455 -765 -168 -1399 -308 -1409 -312 -15 -4
-16 -7 -5 -13 8 -5 518 -187 1134 -405 616 -218 1124 -400 1128 -404 5 -5 0
-35 -10 -67 -19 -63 -23 -274 -15 -823 l4 -224 -61 -54 c-146 -130 -154 -315
-17 -445 l45 -44 44 -259 c25 -145 50 -261 56 -263 16 -5 14 -295 -4 -542 -14
-188 -30 -336 -99 -940 -14 -118 -30 -295 -36 -392 -13 -202 -12 -206 64 -276
50 -46 88 -64 193 -93 91 -24 117 -24 228 1 158 34 260 80 343 155 65 59 99
115 107 180 18 134 -59 512 -230 1145 -128 469 -205 771 -205 797 0 15 -18
141 -41 280 l-42 252 38 76 c33 64 39 85 39 138 -1 104 -62 206 -159 263 l-42
24 -6 168 c-4 92 -11 275 -17 407 -12 255 -3 426 23 452 11 11 102 -18 568
-183 304 -108 558 -200 562 -204 5 -4 -6 -279 -24 -611 -17 -332 -32 -687 -32
-789 -1 -175 0 -190 27 -275 33 -109 109 -271 166 -355 90 -133 233 -260 351
-314 118 -54 614 -190 929 -255 983 -202 1867 -213 2850 -35 650 118 1161 292
1420 485 201 150 240 229 273 551 15 142 28 -1 -118 1271 -26 219 -45 412 -43
428 l3 31 1647 631 c906 347 1644 634 1640 638 -4 4 -848 170 -1877 369 -2339
453 -4564 886 -4590 894 -11 3 -27 1 -35 -4z"/>
</g>
</svg>
